<!-- Generator: Adobe Illustrator 22.1.0, SVG Export Plug-In  -->
<svg version="1.1"
	 xmlns="http://www.w3.org/2000/svg" xmlns:xlink="http://www.w3.org/1999/xlink" xmlns:a="http://ns.adobe.com/AdobeSVGViewerExtensions/3.0/"
	 x="0px" y="0px" width="101.921px" height="125.729px" viewBox="0 0 101.921 125.729"
	 style="enable-background:new 0 0 101.921 125.729;" xml:space="preserve">
<style type="text/css">
	.st0{fill:#FFFBD4;}
</style>
<defs>
</defs>
<g>
	<g>
		<path class="st0" d="M101.921,65.726c0-2.783-0.9-5.479-2.508-7.621l-1.379-1.721l0.011-0.034
			c-1.007-1.481-0.663-4.147-0.117-6.212l-0.018-0.005l1.159-4.509c0.093-0.695,0.139-1.394,0.139-2.091
			c0-5.263-2.628-10.14-6.779-12.742c0.15-0.933,0.225-1.858,0.225-2.763c0-7.814-5.113-14.552-12.046-16.095
			c-1.509-4.762-5.605-8.03-10.286-8.11c0,0-1.476-0.023-2.952,0.302c-0.003-0.01-0.005-0.017-0.008-0.027
			c-1.337,0.185-3.851,0.273-6.381-1.027C58.042,1.083,54.654,0.021,51.179,0c-0.073,0-0.146,0.008-0.219,0.009
			C50.887,0.008,50.815,0,50.742,0c-3.474,0.021-6.862,1.083-9.803,3.07c-2.529,1.3-5.044,1.212-6.381,1.027
			c-0.003,0.009-0.005,0.017-0.008,0.027c-1.476-0.325-2.952-0.302-2.952-0.302c-4.681,0.081-8.776,3.348-10.286,8.11
			c-6.933,1.543-12.046,8.281-12.046,16.095c0,0.905,0.075,1.83,0.225,2.763c-4.152,2.603-6.779,7.48-6.779,12.742
			c0,0.697,0.047,1.396,0.139,2.091l1.159,4.509l-0.018,0.005c0.546,2.065,0.889,4.731-0.117,6.212l0.011,0.034l-1.379,1.721
			C0.899,60.247,0,62.943,0,65.726c0,1.295,0.194,2.584,0.568,3.808c0,0,1.954,4.075,2.347,5.205L2.882,74.75
			c0.613,1.681,1.074,3.871,0.58,6.101c-0.519,1.255-0.783,2.58-0.783,3.941c0,3.89,2.109,7.302,5.291,8.816
			c-0.372,1.192-0.559,2.433-0.559,3.706c0,6.418,4.802,11.639,10.705,11.639c1.654,0,3.258-0.409,4.72-1.196
			c2.103,3.826,6.192,8.355,6.39,8.574l0.632,0.697c0.183,1.447,1.41,2.575,2.908,2.575c0.216,0,0.425-0.026,0.627-0.071
			c0.259,1.491,1.555,2.631,3.12,2.631c0.509,0,0.984-0.132,1.411-0.345c0.414,1.332,1.645,2.308,3.112,2.308
			c0.669,0,1.291-0.203,1.81-0.549c0.561,0.998,1.618,1.682,2.843,1.682c0.863,0,1.643-0.342,2.229-0.889
			c0.632,0.822,1.615,1.362,2.73,1.362c0.108,0,0.208-0.028,0.313-0.039c0.105,0.011,0.205,0.039,0.313,0.039
			c1.115,0,2.098-0.54,2.73-1.362c0.585,0.547,1.366,0.889,2.229,0.889c1.225,0,2.282-0.684,2.843-1.682
			c0.519,0.346,1.141,0.549,1.81,0.549c1.467,0,2.698-0.977,3.112-2.308c0.427,0.214,0.902,0.345,1.411,0.345
			c1.565,0,2.861-1.14,3.12-2.631c0.203,0.044,0.412,0.071,0.627,0.071c1.498,0,2.724-1.127,2.908-2.575l0.632-0.697
			c0.198-0.219,4.287-4.748,6.39-8.574c1.462,0.787,3.066,1.196,4.72,1.196c5.903,0,10.705-5.221,10.705-11.639
			c0-1.273-0.188-2.513-0.559-3.706c3.182-1.514,5.291-4.925,5.291-8.816c0-1.361-0.263-2.686-0.783-3.941
			c-0.494-2.23-0.032-4.42,0.58-6.101l-0.033-0.011c0.393-1.13,2.347-5.205,2.347-5.205
			C101.727,68.31,101.921,67.021,101.921,65.726z M32.971,118.144c-0.802,0-1.452-0.649-1.452-1.45c0-0.801,0.65-1.45,1.452-1.45
			c0.802,0,1.452,0.649,1.452,1.45C34.423,117.495,33.773,118.144,32.971,118.144z M36.718,120.704c-0.929,0-1.682-0.752-1.682-1.68
			s0.753-1.68,1.682-1.68c0.929,0,1.682,0.752,1.682,1.68S37.647,120.704,36.718,120.704z M41.241,122.667
			c-0.983,0-1.78-0.796-1.78-1.778c0-0.982,0.797-1.778,1.78-1.778c0.983,0,1.78,0.796,1.78,1.778
			C43.021,121.871,42.224,122.667,41.241,122.667z M45.894,123.799c-0.983,0-1.78-0.796-1.78-1.778s0.797-1.778,1.78-1.778
			c0.983,0,1.78,0.796,1.78,1.778S46.877,123.799,45.894,123.799z M50.852,124.271c-1.083,0-1.961-0.877-1.961-1.958
			c0-1.081,0.878-1.958,1.961-1.958s1.961,0.877,1.961,1.958C52.813,123.394,51.935,124.271,50.852,124.271z M56.067,123.799
			c-0.983,0-1.78-0.796-1.78-1.778s0.797-1.778,1.78-1.778s1.78,0.796,1.78,1.778S57.05,123.799,56.067,123.799z M60.707,122.659
			c-0.983,0-1.78-0.796-1.78-1.778c0-0.982,0.797-1.778,1.78-1.778c0.983,0,1.78,0.796,1.78,1.778
			C62.487,121.863,61.69,122.659,60.707,122.659z M65.12,120.704c-0.929,0-1.682-0.752-1.682-1.68s0.753-1.68,1.682-1.68
			c0.929,0,1.682,0.752,1.682,1.68S66.049,120.704,65.12,120.704z M68.824,118.144c-0.802,0-1.452-0.649-1.452-1.45
			c0-0.801,0.65-1.45,1.452-1.45c0.802,0,1.452,0.649,1.452,1.45C70.276,117.495,69.626,118.144,68.824,118.144z M99.119,70.879
			c0,0-3.571,5.056-2.293,10.467c0.455,1.057,0.717,2.234,0.717,3.481c0,3.869-2.451,7.102-5.734,7.935
			c0.636,1.379,1.003,2.934,1.003,4.586c0,5.604-4.124,10.147-9.212,10.147c-1.987,0-3.823-0.7-5.328-1.879
			c-1.514,3.82-6.888,9.746-6.888,9.746s0,0-0.534-0.882c3.738-3.97,3.204-15.882,3.204-15.882s0,0,0-7.206
			c-0.04,0.091-0.084,0.175-0.124,0.265v-0.214c-4.447,8.372-12.968,14.05-22.733,14.05c-10.242,0-19.118-6.246-23.357-15.296v12.61
			h0.069c0.188,3.829,0.874,9.24,3.164,11.672c-0.534,0.882-0.534,0.882-0.534,0.882s-5.374-5.926-6.888-9.746
			c-1.505,1.179-3.34,1.879-5.328,1.879c-5.088,0-9.212-4.543-9.212-10.147c0-1.652,0.366-3.208,1.002-4.586
			c-3.284-0.833-5.734-4.065-5.734-7.935c0-1.247,0.262-2.424,0.717-3.481c1.279-5.411-2.293-10.467-2.293-10.467l0.095-0.009
			c-0.762-1.515-1.198-3.255-1.198-5.109c0-3.115,1.231-5.906,3.179-7.839c-0.025-0.02-0.047-0.036-0.072-0.056
			c3.204-3.088,0-10.588,0-10.588L4.9,47.284c-0.314-1.18-0.49-2.426-0.49-3.718c0-5.309,2.85-9.874,6.952-11.972
			c-0.25-1.135-0.397-2.314-0.397-3.533c0-7.571,5.115-13.812,11.743-14.798c1.068-4.55,4.809-7.916,9.274-7.916
			c0.464,0,0.916,0.049,1.363,0.119l-0.003-0.098c0,0,4.23,1.294,8.568-0.978c2.63-1.797,5.728-2.842,9.047-2.862v0
			c0.001,0,0.003,0,0.004,0c0.001,0,0.003,0,0.004,0v0c3.319,0.02,6.416,1.065,9.047,2.862c4.338,2.273,8.568,0.978,8.568,0.978
			l-0.003,0.098c0.446-0.07,0.899-0.119,1.363-0.119c4.465,0,8.206,3.366,9.274,7.916c6.628,0.986,11.743,7.227,11.743,14.798
			c0,1.219-0.147,2.398-0.397,3.533c4.101,2.098,6.952,6.663,6.952,11.972c0,1.292-0.176,2.537-0.49,3.718l0.095-0.007
			c0,0-3.204,7.5,0,10.588c-0.026,0.02-0.047,0.036-0.072,0.056c1.947,1.933,3.179,4.724,3.179,7.839
			c0,1.854-0.437,3.595-1.198,5.109L99.119,70.879z"/>
		<polygon class="st0" points="82.02,86.142 80.365,86.142 80.365,87.844 78.527,87.844 78.527,89.451 80.365,89.451 80.365,94.403 
			82.02,94.403 82.02,89.451 83.858,89.451 83.858,87.844 82.02,87.844 		"/>
		<path class="st0" d="M83.478,72.776l-1.581,1.742c0,0-1.652,1.158-2.704,0c-1.051-1.158-0.1-2.537-0.1-2.537l1.302-1.434
			c0,0-1.152-1.268-2.603-2.867c-1.452-1.599-1.302-1.875-1.302-4.191c0-0.88-0.078-1.535-0.259-2.11
			c-0.87,4.784-5.054,8.414-10.096,8.414c-12.375,0-12.934-10.41-12.956-15.261H48.83c-0.022,4.85-0.581,15.261-12.956,15.261
			c-5.107,0-9.331-3.726-10.124-8.601c-0.225,0.619-0.318,1.321-0.318,2.296c0,2.316,0.15,2.592-1.302,4.191
			c-1.452,1.599-2.603,2.867-2.603,2.867l1.302,1.434c0,0,0.951,1.379-0.1,2.537c-1.051,1.158-2.703,0-2.703,0l-1.582-1.742
			c-0.552,0.682-1.177,1.289-1.871,1.795c0.809,2.047,2.45,5.204,4.888,5.204c0.112,0,0.228,0,0.346-0.002l0,0.001
			c0,0,0.131,0.007,0.337-0.015c0.012-0.001,0.024-0.002,0.036-0.003c0.014-0.002,0.024-0.003,0.039-0.005
			c0.403-0.039,0.825-0.15,1.242-0.446c1.183-0.693,2.573-2.432,2.694-6.699h0.824v4.756c-0.011,0.28-0.023,0.559-0.023,0.842
			c0,11.313,7.029,20.925,16.728,24.264c-0.681-0.581-1.545-1.405-2.632-2.619c-3.093-3.456-3.903-3.897-4.713-4.411
			c-0.809-0.514-3.455-2.863-4.341-6.093h0.675c0.516,1.445,1.948,4.589,4.918,5.652c3.903,1.397,5.817,3.015,6.48,4.044
			c0.663,1.029,3.68,2.646,6.845,2.647c3.165-0.001,6.183-1.618,6.845-2.647c0.663-1.029,2.577-2.647,6.48-4.044
			c2.97-1.063,4.402-4.208,4.918-5.652h0.675c-0.886,3.23-3.532,5.579-4.341,6.093c-0.81,0.515-1.62,0.956-4.713,4.411
			c-1.211,1.354-2.16,2.24-2.869,2.823l0.016,0.007c0,0-0.022,0.021-0.047,0.045c7.413-2.244,13.386-8.103,16.052-15.655v-0.146
			c0.565-1.768,0.971-3.508,1.266-5.134c0.157-1.172,0.244-2.367,0.244-3.584c0-0.683-0.036-1.357-0.087-2.026v-3.571h0.654
			c0.083,2.671,0.661,4.359,1.38,5.397c0.566,1.041,1.184,1.472,1.785,1.647c-0.216,0.537-0.344,1.177-0.344,1.874
			c0,1.932,0.952,3.445,2.168,3.445s2.168-1.513,2.168-3.445c0-1.008-0.263-1.896-0.684-2.52c1.349-1.065,2.31-3.015,2.871-4.434
			C84.655,74.065,84.03,73.458,83.478,72.776z M54.871,76.208c0.019-0.056,0.041-0.111,0.065-0.165
			c0.38-0.856,1.379-1.468,2.558-1.468c1.483,0,1.483,0,1.483,0c0.68,1.197,0.013,2.176-1.483,2.176s-2.702-0.166-2.681-0.369
			C54.813,76.382,54.813,76.382,54.871,76.208z M43.142,74.575c0,0,0,0,1.483,0c1.178,0,2.178,0.612,2.557,1.468
			c0.024,0.054,0.046,0.109,0.065,0.165c0.059,0.173,0.059,0.173,0.059,0.173c0.022,0.203-1.185,0.369-2.681,0.369
			S42.461,75.772,43.142,74.575z M54.213,90.775h-6.766c-5.234,0-5.234-4.169-5.234-4.169s0.125-0.035,0.405-0.035
			c0,0.764,1.246,0.903,1.246,0.903h6.953h0.025h6.953c0,0,1.246-0.139,1.246-0.903c0.28,0,0.405,0.035,0.405,0.035
			S59.447,90.775,54.213,90.775z M66.665,88.128c0,0-0.055,0.588-0.589,0.588c-0.534,0-1.022-1.02-1.022-1.02
			s-1.721-3.924-3.47-3.924c-1.749,0-6.498,0-6.498,0s-3.296-0.666-3.866-3.193c-0.57,2.526-3.866,3.193-3.866,3.193
			s-4.75,0-6.498,0c-1.749,0-3.47,3.924-3.47,3.924s-0.488,1.02-1.022,1.02c-0.534,0-0.589-0.588-0.589-0.588s0,0,0-3.75
			c0-1.875,1.988-2.757,1.988-2.757s0.005-0.002,9.705-5.026c1.075,0.715,2.364,1.133,3.752,1.133c1.388,0,2.677-0.418,3.752-1.133
			c9.7,5.023,9.705,5.026,9.705,5.026s1.988,0.882,1.988,2.757C66.665,88.128,66.665,88.128,66.665,88.128z M80.995,84.088
			c-0.607,0-1.284-1.052-1.284-2.562c0-0.707,0.151-1.307,0.371-1.752c0.13,0.003,0.256,0.002,0.379,0.002
			c0.452,0,0.876-0.109,1.273-0.299c0.312,0.451,0.545,1.168,0.545,2.049C82.279,83.036,81.603,84.088,80.995,84.088z"/>
		<path class="st0" d="M36.505,49.306h7.692c0,0,3.911,0.035,4.54,3.401h4.535c0.628-3.366,4.54-3.401,4.54-3.401h7.692
			c0.209-0.013,0.42-0.021,0.632-0.021c2.565,0,4.87,0.328,6.65,1.441v-1.461c-1.656-0.654-3.071-1.864-4.05-3.434
			c-0.053,0.001-0.104,0.009-0.157,0.009c-4.18,0-7.63-3.404-8.213-7.83c-1.07,0.499-2.246,0.775-3.481,0.775
			c-2.276,0-4.346-0.946-5.924-2.489c-1.577,1.544-3.648,2.489-5.924,2.489c-1.235,0-2.411-0.276-3.481-0.775
			c-0.583,4.427-4.032,7.83-8.213,7.83c-0.053,0-0.104-0.008-0.157-0.009c-0.979,1.571-2.394,2.78-4.05,3.434v1.517
			c1.791-1.159,4.13-1.497,6.737-1.497C36.086,49.285,36.296,49.293,36.505,49.306z"/>
	</g>
</g>
</svg>